<svg xmlns="http://www.w3.org/2000/svg" viewBox="0 0 500 500"><g id="freepik--background-complete--inject-87"><path d="M82.59,347.06l-13.12.27-6.66.12c-2.23,0-4.47,0-6.7.05h-.44v-.44l-.06-11.19v-.51h.5l13.24.06c4.42,0,8.83.11,13.24.16h.28v.27c0,1.89-.09,3.78-.13,5.65Zm0,0-.14-5.66c0-1.86-.11-3.7-.13-5.53l.27.27c-4.41.05-8.82.16-13.24.16l-13.24.07.5-.5,0,11.19-.45-.45c2.18,0,4.36,0,6.55.05l6.58.12Z" style="fill:#ebebeb"></path><path d="M67.82,361.17l-13.12.27-6.66.12c-2.23,0-4.47,0-6.7.05H40.9v-.44L40.84,350v-.51h.5l13.24.06c4.41,0,8.83.11,13.24.16h.28V350c0,1.89-.08,3.78-.13,5.65Zm0,0-.14-5.66c-.05-1.86-.11-3.7-.13-5.53l.27.27c-4.41.05-8.83.16-13.24.16l-13.24.06.5-.49-.05,11.19-.45-.45c2.18,0,4.36,0,6.55,0l6.58.12Z" style="fill:#ebebeb"></path><path d="M170.78,202.49l-13.12.28-6.66.11c-2.23.05-4.47,0-6.7.06h-.44v-.45l-.06-11.19v-.5h.5l13.24.07c4.42,0,8.83.11,13.24.16h.28v.27c0,1.9-.09,3.79-.13,5.66Zm0,0-.14-5.65c0-1.86-.11-3.71-.13-5.54l.27.28c-4.41,0-8.82.15-13.24.16l-13.24.06.5-.5-.05,11.19-.45-.44c2.18,0,4.36,0,6.55,0l6.58.11Z" style="fill:#ebebeb"></path><path d="M156,216.6l-13.12.28-6.66.11c-2.23,0-4.47,0-6.7.06h-.44v-.45L129,205.41v-.5h.5l13.24.07c4.41,0,8.83.11,13.24.16h.28v.27c0,1.9-.08,3.79-.13,5.66Zm0,0-.14-5.65c-.05-1.86-.11-3.71-.13-5.54l.27.28c-4.41.05-8.83.15-13.24.16l-13.24.06.5-.5L130,216.6l-.45-.44c2.18,0,4.36,0,6.55.05l6.58.11Z" style="fill:#ebebeb"></path><path d="M141.3,202.49l-13.13.28-6.66.11c-2.22.05-4.46,0-6.69.06h-.45v-.45l-.05-11.19v-.5h.5l13.24.07c4.41,0,8.82.11,13.24.16h.27v.27c0,1.9-.08,3.79-.13,5.66Zm0,0-.14-5.65c0-1.86-.12-3.71-.13-5.54l.27.28c-4.42,0-8.83.15-13.24.16l-13.24.06.5-.5-.06,11.19-.44-.44c2.18,0,4.36,0,6.54,0l6.58.11Z" style="fill:#ebebeb"></path><path d="M458.66,361.17l-13.13.27-6.66.12c-2.22,0-4.46,0-6.69.05h-.45v-.44L431.68,350v-.51h.5l13.24.06c4.41,0,8.83.11,13.24.16h.27V350c0,1.89-.08,3.78-.13,5.65Zm0,0-.14-5.66c0-1.86-.12-3.7-.13-5.53l.27.27c-4.41.05-8.83.16-13.24.16l-13.24.06.5-.49-.06,11.19-.44-.45c2.18,0,4.36,0,6.54,0l6.58.12Z" style="fill:#ebebeb"></path><path d="M443.89,67.49l-13.13.27-6.66.12c-2.22,0-4.46,0-6.69.05H417v-.45l0-11.19v-.51h.51l13.24.06c4.41,0,8.82.11,13.24.16h.27v.27c0,1.9-.09,3.78-.13,5.65Zm0,0-.14-5.66c-.05-1.86-.12-3.7-.14-5.53l.28.27c-4.42,0-8.83.16-13.24.16l-13.24.07.5-.5-.06,11.19-.44-.45c2.18,0,4.35,0,6.54.06l6.58.11Z" style="fill:#ebebeb"></path><path d="M458.66,81.6l-13.13.27-6.66.12c-2.22,0-4.46,0-6.69.05h-.45V81.6l-.05-11.19V69.9h.5l13.24.06c4.41,0,8.83.11,13.24.16h.27v.27c0,1.89-.08,3.78-.13,5.65Zm0,0-.14-5.66c0-1.86-.12-3.7-.13-5.53l.27.27c-4.41,0-8.83.16-13.24.16l-13.24.07.5-.5-.06,11.19-.44-.45c2.18,0,4.36,0,6.54.06l6.58.11Z" style="fill:#ebebeb"></path><path d="M82.59,67.49l-13.12.27-6.66.12c-2.23,0-4.47,0-6.7.05h-.44v-.45L55.61,56.3v-.51h.5l13.24.06c4.42,0,8.83.11,13.24.16h.28v.27c0,1.9-.09,3.78-.13,5.65Zm0,0-.14-5.66c0-1.86-.11-3.7-.13-5.53l.27.27c-4.41,0-8.82.16-13.24.16l-13.24.07.5-.5,0,11.19L56.11,67c2.18,0,4.36,0,6.55.06l6.58.11Z" style="fill:#ebebeb"></path><rect x="365.53" y="113.63" width="73.88" height="73.88" style="fill:#ebebeb"></rect><path d="M403.69,125.49a2.49,2.49,0,0,1,2.52,2.51v1.28a21.23,21.23,0,0,1,9.05,3.22,3.12,3.12,0,0,1,1.75,2.8,3.21,3.21,0,0,1-3.27,3.21A3.37,3.37,0,0,1,412,138a21,21,0,0,0-6-2.57v11.21c8.88,2.22,12.68,5.78,12.68,12,0,6.43-5,10.69-12.44,11.39v3.51a2.49,2.49,0,0,1-2.52,2.51,2.54,2.54,0,0,1-2.57-2.51v-3.62a25.29,25.29,0,0,1-12-4.56,3.22,3.22,0,0,1-1.58-2.8,3.21,3.21,0,0,1,5.14-2.57,20.72,20.72,0,0,0,8.65,3.91V152.41c-8.53-2.22-12.5-5.43-12.5-12,0-6.25,5-10.57,12.26-11.16V128A2.54,2.54,0,0,1,403.69,125.49Zm-2.33,19.91V135.07c-3.74.35-5.61,2.33-5.61,4.9S396.86,143.94,401.36,145.4Zm4.61,8.12v10.63c3.74-.4,5.78-2.27,5.78-5.08C411.75,156.5,410.47,154.92,406,153.52Z" style="fill:#fff"></path><rect x="60.59" y="63.44" width="73.88" height="73.88" style="fill:#ebebeb"></rect><path d="M113.93,115.07H79.47L71,84.47l48.46,0,1.75-7.06h5.49v2h-3.93Zm-32.93-2h31.36L119,86.42l-45.33,0Z" style="fill:#fff"></path><polygon points="84.32 121.13 82.48 120.35 85.56 113.03 109.01 113.03 111.55 120.42 109.66 121.07 107.58 115.03 86.89 115.03 84.32 121.13" style="fill:#fff"></polygon><rect x="74.52" y="91.42" width="44" height="2" style="fill:#fff"></rect><rect x="76.35" y="98.92" width="39.8" height="2" transform="translate(-0.44 0.42) rotate(-0.25)" style="fill:#fff"></rect><rect x="78.45" y="106.6" width="36.07" height="2" style="fill:#fff"></rect><rect x="95.95" y="85.6" width="2" height="28.47" style="fill:#fff"></rect><rect x="89.33" y="85.55" width="2" height="28.57" transform="translate(-7.69 7.54) rotate(-4.58)" style="fill:#fff"></rect><rect x="82.2" y="85.36" width="2" height="28.95" transform="translate(-16.69 16.7) rotate(-10.42)" style="fill:#fff"></rect><rect x="89.17" y="98.83" width="28.57" height="2" transform="translate(-4.35 194.96) rotate(-85.4)" style="fill:#fff"></rect><rect x="96.1" y="98.83" width="28.95" height="2" transform="translate(-7.6 190.55) rotate(-79.59)" style="fill:#fff"></rect><path d="M83.4,125.05a4.31,4.31,0,1,1,4.31-4.31A4.31,4.31,0,0,1,83.4,125.05Zm0-6.62a2.31,2.31,0,1,0,2.31,2.31A2.32,2.32,0,0,0,83.4,118.43Z" style="fill:#fff"></path><path d="M110.51,125.05a4.31,4.31,0,1,1,4.31-4.31A4.31,4.31,0,0,1,110.51,125.05Zm0-6.62a2.31,2.31,0,1,0,2.31,2.31A2.32,2.32,0,0,0,110.51,118.43Z" style="fill:#fff"></path></g><g id="freepik--Shadow--inject-87"><ellipse cx="363.85" cy="463.73" rx="99.95" ry="8.29" style="fill:#ebebeb"></ellipse></g></svg>